<?xml version="1.0" encoding="iso-8859-1"?>
<!-- Uploaded to: SVG Repo, www.svgrepo.com, Generator: SVG Repo Mixer Tools -->
<!DOCTYPE svg PUBLIC "-//W3C//DTD SVG 1.1//EN" "http://www.w3.org/Graphics/SVG/1.1/DTD/svg11.dtd">
<svg fill="#000000" height="800px" width="800px" version="1.1" id="Capa_1" xmlns="http://www.w3.org/2000/svg" xmlns:xlink="http://www.w3.org/1999/xlink" 
	 viewBox="0 0 427.49 427.49" xml:space="preserve">
<path d="M341.72,172.163c-1.862-2.439-4.758-3.87-7.828-3.87h-36.889c-5.5-21.383-13.25-42.453-22.819-45.203l-28.641-8.683
	c-0.691-2.095-2.225-3.902-4.37-5.434c2.362-2.624,4.353-5.279,5.868-7.478c3.593-5.212,6.582-10.823,8.654-16.237
	c1.021-2.287,1.893-4.578,2.597-6.828c2.787-2.335,4.429-5.829,4.429-9.488v-8.969c0-2.574-0.809-5.093-2.298-7.181V40.167
	C260.423,18.017,242.401,0,220.254,0h-13.018c-22.149,0-40.169,18.017-40.169,40.167v12.626c-1.489,2.088-2.298,4.606-2.298,7.181
	v8.969c0,3.657,1.64,7.146,4.429,9.486c0.704,2.246,1.572,4.543,2.597,6.834c2.068,5.41,5.062,11.023,8.654,16.231
	c1.516,2.198,3.506,4.854,5.868,7.479c-2.145,1.531-3.679,3.339-4.37,5.434l-28.641,8.683c-9.571,2.75-17.322,23.82-22.82,45.203
	h-10.542c-1.143-4.999-5.2-8.897-10.291-9.796c-0.178-13.205,1.57-42.704,19.776-52.854c2.626,1.766,5.952,2.464,9.262,1.638
	l7.997-2c6.2-1.551,9.971-7.834,8.421-14.036c-1.551-6.199-7.835-9.971-14.035-8.42l-7.997,2.002
	c-5.147,1.286-8.608,5.836-8.753,10.89c-11.829,6.402-19.899,19.143-23.591,37.488c-1.975,9.809-2.297,19.199-2.214,25.417
	c-5.244,1.2-9.269,5.607-9.9,11.041c-1.087,0.639-2.063,1.475-2.849,2.501c-1.867,2.44-2.484,5.606-1.68,8.573l14.342,52.702
	c1.164,4.29,5.063,7.265,9.508,7.265h18.12v132.929h-17.618c-5.44,0-9.853,4.409-9.853,9.851v34.157c0,5.44,4.412,9.851,9.853,9.851
	h210.606c5.44,0,9.852-4.41,9.852-9.851v-34.157c0-5.441-4.412-9.851-9.852-9.851H301.43V240.703h18.12
	c4.444,0,8.344-2.975,9.508-7.265l14.342-52.702C344.204,177.77,343.587,174.604,341.72,172.163z M206.799,129.968
	c0.49,0.542,0.726,1.266,0.65,1.989l-1.413,13.684c-0.105,1.055-0.846,1.933-1.868,2.215c-0.226,0.063-0.46,0.095-0.688,0.095
	c-0.798,0-1.564-0.369-2.059-1.023l-7.235-9.598c-0.336-0.446-0.518-0.991-0.518-1.55l0.009-15.388c0-0.902,0.475-1.736,1.247-2.202
	c0.775-0.467,1.733-0.494,2.53-0.071c2.105,1.113,4.211,1.859,6.253,2.225c1.229,0.218,2.121,1.287,2.121,2.535v6.417
	C206.198,129.44,206.529,129.669,206.799,129.968z M220.042,131.957c-0.076-0.724,0.161-1.447,0.649-1.989
	c0.27-0.299,0.601-0.527,0.971-0.673v-6.417c0-1.248,0.894-2.317,2.121-2.535c2.04-0.365,4.145-1.111,6.251-2.223
	c0.797-0.423,1.757-0.396,2.53,0.071c0.772,0.464,1.247,1.3,1.247,2.202l0.002,15.386c0,0.559-0.186,1.105-0.521,1.55l-7.224,9.592
	c-0.495,0.656-1.261,1.022-2.057,1.022c-0.231,0-0.464-0.029-0.691-0.092c-1.021-0.285-1.761-1.163-1.868-2.218L220.042,131.957z
	 M182.341,72.172l-0.141-1.067l-2.498-1.622c-0.73-0.475-1.173-1.288-1.173-2.16v-4.238c0-1.422,1.153-2.573,2.573-2.573h1.055
	v-4.592c0-0.975,0.549-1.866,1.424-2.304c3.545-1.769,10.579-4.737,17.859-4.737c5.814,0,10.628,1.933,14.318,5.744
	c4.604,4.754,9.903,7.165,15.76,7.165c3.318,0,6.748-0.783,10.186-2.326c0.8-0.356,1.722-0.285,2.452,0.188
	c0.345,0.224,0.626,0.521,0.824,0.862h1.407c1.42,0,2.573,1.151,2.573,2.573v4.24c0,0.87-0.442,1.684-1.173,2.158l-2.498,1.624
	l-0.139,1.061c-0.814,6.155-4.268,14.132-9.241,21.334c-6.292,9.132-12.196,13.222-15.251,13.222h-13.828
	c-3.058,0-8.959-4.092-15.253-13.224C186.608,86.299,183.151,78.325,182.341,72.172z M213.745,337.25
	c-10.367,0-21.919-16.566-21.919-40.342c0-23.772,11.552-40.341,21.919-40.341s21.919,16.568,21.919,40.341
	C235.664,320.684,224.112,337.25,213.745,337.25z"/>
</svg>